<?xml version="1.0" encoding="UTF-8" standalone="no"?>
<!-- Created with Inkscape (http://www.inkscape.org/) -->

<svg
   width="200mm"
   height="200mm"
   viewBox="0 0 200 200"
   version="1.1"
   id="svg5"
   xml:space="preserve"
   inkscape:version="1.2 (dc2aeda, 2022-05-15)"
   sodipodi:docname="icone_soft.svg"
   xmlns:inkscape="http://www.inkscape.org/namespaces/inkscape"
   xmlns:sodipodi="http://sodipodi.sourceforge.net/DTD/sodipodi-0.dtd"
   xmlns="http://www.w3.org/2000/svg"
   xmlns:svg="http://www.w3.org/2000/svg"><sodipodi:namedview
     id="namedview7"
     pagecolor="#ffffff"
     bordercolor="#000000"
     borderopacity="0.25"
     inkscape:showpageshadow="2"
     inkscape:pageopacity="0.0"
     inkscape:pagecheckerboard="0"
     inkscape:deskcolor="#d1d1d1"
     inkscape:document-units="mm"
     showgrid="false"
     inkscape:zoom="0.76149715"
     inkscape:cx="420.88142"
     inkscape:cy="371.63632"
     inkscape:window-width="1463"
     inkscape:window-height="838"
     inkscape:window-x="0"
     inkscape:window-y="38"
     inkscape:window-maximized="0"
     inkscape:current-layer="layer1" /><defs
     id="defs2" /><g
     inkscape:label="Calque 1"
     inkscape:groupmode="layer"
     id="layer1"><path
       style="fill:#b3b3b3;stroke-width:0.189377"
       d="m 96.330327,127.19956 c -1.89888,-0.77384 -3.481576,-1.42705 -3.517095,-1.45158 -0.03548,-0.0246 2.87318,-4.52906 6.463795,-10.01006 3.590603,-5.48101 6.502753,-9.99045 6.471423,-10.02098 -0.0314,-0.0305 -5.04512,2.85083 -11.14179,6.40304 -6.096655,3.55222 -11.103135,6.43522 -11.125528,6.40668 -0.02241,-0.0285 1.023387,-4.50629 2.323941,-9.95054 1.300555,-5.44427 2.335269,-9.927304 2.299358,-9.962312 -0.03588,-0.03496 -2.685222,1.533292 -5.88737,3.485112 -3.202137,1.95184 -5.850092,3.52146 -5.884335,3.48808 -0.03427,-0.0333 0.594155,-2.29846 1.396448,-5.03349 L 79.187895,95.58073 77.093953,89.032589 75,82.484448 l 0.691234,0.415326 c 0.380186,0.228428 3.314001,2.039236 6.519606,4.024018 3.205605,1.98478 5.858354,3.579461 5.894998,3.543735 0.03669,-0.03572 -0.923222,-4.302719 -2.133049,-9.482203 C 84.762962,75.805839 83.804411,71.537552 83.842684,71.50024 83.931634,71.41351 125.0072,94.869177 125,95.002598 c -0.003,0.05483 -3.59278,2.161149 -7.97739,4.680702 -4.38462,2.51955 -8.04443,4.71169 -8.13294,4.87141 -0.0884,0.15972 -2.12098,5.58681 -4.51662,12.06019 -2.39564,6.47338 -4.408478,11.81972 -4.472963,11.88072 -0.06453,0.061 -1.670871,-0.52222 -3.56976,-1.29606 z M 116.5659,94.260886 c 0.86793,-0.846085 0.24271,-2.430736 -0.95903,-2.430736 -0.78168,0 -1.34264,0.585912 -1.34264,1.402348 0,0.816436 0.56096,1.402348 1.34264,1.402348 0.31967,0 0.74591,-0.166205 0.95903,-0.37396 z"
       id="path181" /><path
       style="fill:#000000;stroke-width:0.18793"
       id="path179"
       d="" /></g></svg>
