<?xml version="1.0" encoding="UTF-8" standalone="no"?>
<svg
   width="48pt"
   height="48pt"
   version="1.1"
   viewBox="0 0 48 48"
   id="svg162"
   sodipodi:docname="noun-heatmap-4869314.svg"
   inkscape:version="1.2 (dc2aeda, 2022-05-15)"
   xmlns:inkscape="http://www.inkscape.org/namespaces/inkscape"
   xmlns:sodipodi="http://sodipodi.sourceforge.net/DTD/sodipodi-0.dtd"
   xmlns="http://www.w3.org/2000/svg"
   xmlns:svg="http://www.w3.org/2000/svg">
  <sodipodi:namedview
     id="namedview164"
     pagecolor="#ffffff"
     bordercolor="#000000"
     borderopacity="0.25"
     inkscape:showpageshadow="2"
     inkscape:pageopacity="0.0"
     inkscape:pagecheckerboard="0"
     inkscape:deskcolor="#d1d1d1"
     inkscape:document-units="pt"
     showgrid="false"
     inkscape:zoom="3.9878434"
     inkscape:cx="56.922998"
     inkscape:cy="70.33877"
     inkscape:window-width="1512"
     inkscape:window-height="945"
     inkscape:window-x="0"
     inkscape:window-y="37"
     inkscape:window-maximized="0"
     inkscape:current-layer="g160" />
  <defs
     id="defs68">
    <symbol
       id="v"
       overflow="visible">
      <path
         d="m 14.656,-0.875 c -0.76172,0.39844 -1.5547,0.69531 -2.375,0.89062 -0.8125,0.19531 -1.6641,0.29688 -2.5469,0.29688 -2.6562,0 -4.7617,-0.73828 -6.3125,-2.2188 -1.5547,-1.4883 -2.3281,-3.5039 -2.3281,-6.0469 0,-2.5508 0.77344,-4.5664 2.3281,-6.0469 1.5508,-1.4883 3.6562,-2.2344 6.3125,-2.2344 0.88281,0 1.7344,0.10156 2.5469,0.29688 0.82031,0.19922 1.6133,0.49609 2.375,0.89062 v 3.2969 c -0.76172,-0.51953 -1.5117,-0.89844 -2.25,-1.1406 -0.74219,-0.23828 -1.5234,-0.35938 -2.3438,-0.35938 -1.4688,0 -2.625,0.46875 -3.4688,1.4062 -0.83594,0.9375 -1.25,2.2344 -1.25,3.8906 0,1.6484 0.41406,2.9375 1.25,3.875 0.84375,0.9375 2,1.4062 3.4688,1.4062 0.82031,0 1.6016,-0.11719 2.3438,-0.35938 0.73828,-0.23828 1.4883,-0.61719 2.25,-1.1406 z"
         id="path2" />
    </symbol>
    <symbol
       id="d"
       overflow="visible">
      <path
         d="m 10.719,-8.7031 c -0.33594,-0.15625 -0.66797,-0.26953 -1,-0.34375 -0.32422,-0.082031 -0.65625,-0.125 -1,-0.125 -0.98047,0 -1.7344,0.32031 -2.2656,0.95312 -0.53125,0.625 -0.79688,1.5273 -0.79688,2.7031 V -3e-5 h -3.8125 v -11.969 h 3.8125 v 1.9688 c 0.48828,-0.78125 1.0508,-1.3477 1.6875,-1.7031 0.64453,-0.36328 1.4102,-0.54688 2.2969,-0.54688 0.13281,0 0.27344,0.0078 0.42188,0.01563 0.14453,0.01172 0.36328,0.03125 0.65625,0.0625 z"
         id="path5" />
    </symbol>
    <symbol
       id="b"
       overflow="visible">
      <path
         d="m 13.781,-6.0156 v 1.0938 H 4.8435 c 0.09375,0.89844 0.41406,1.5703 0.96875,2.0156 0.55078,0.44922 1.3281,0.67188 2.3281,0.67188 0.80078,0 1.625,-0.11719 2.4688,-0.35938 0.84375,-0.23828 1.7109,-0.59766 2.6094,-1.0781 v 2.9531 c -0.90625,0.33594 -1.8125,0.58984 -2.7188,0.76562 -0.9063,0.17578 -1.8125,0.26562 -2.7188,0.26562 -2.1562,0 -3.8398,-0.54688 -5.0469,-1.6406 -1.1992,-1.1016 -1.7969,-2.6484 -1.7969,-4.6406 0,-1.9453 0.58594,-3.4766 1.7656,-4.5938 1.1758,-1.125 2.8008,-1.6875 4.875,-1.6875 1.875,0 3.375,0.57031 4.5,1.7031 1.1328,1.125 1.7031,2.6367 1.7031,4.5312 z M 9.8435,-7.2812 c 0,-0.72656 -0.21484,-1.3125 -0.64062,-1.75 -0.41797,-0.44531 -0.96875,-0.67188 -1.6562,-0.67188 -0.74219,0 -1.3438,0.21094 -1.8125,0.625 -0.46094,0.41797 -0.74609,1.0156 -0.85938,1.7969 z"
         id="path8" />
    </symbol>
    <symbol
       id="k"
       overflow="visible">
      <path
         d="m 7.2031,-5.3906 c -0.80469,0 -1.4062,0.13672 -1.8125,0.40625 -0.39844,0.27344 -0.59375,0.67188 -0.59375,1.2031 0,0.48047 0.16016,0.85938 0.48438,1.1406 0.32031,0.27344 0.77344,0.40625 1.3594,0.40625 0.71875,0 1.3203,-0.25391 1.8125,-0.76562 0.48828,-0.51953 0.73438,-1.1719 0.73438,-1.9531 v -0.4375 z m 5.8438,-1.4375 V 0 H 9.1875 v -1.7656 c -0.51172,0.71875 -1.0898,1.2461 -1.7344,1.5781 -0.63672,0.33203 -1.418,0.5 -2.3438,0.5 -1.2422,0 -2.2461,-0.35938 -3.0156,-1.0781 -0.77344,-0.72656 -1.1562,-1.6719 -1.1562,-2.8281 0,-1.3945 0.47656,-2.4219 1.4375,-3.0781 0.96875,-0.65625 2.4883,-0.98438 4.5625,-0.98438 h 2.25 v -0.29688 c 0,-0.60156 -0.24219,-1.0469 -0.71875,-1.3281 -0.48047,-0.28125 -1.2266,-0.42188 -2.2344,-0.42188 -0.8125,0 -1.5742,0.085937 -2.2812,0.25 -0.71094,0.15625 -1.3672,0.40234 -1.9688,0.73438 v -2.9219 c 0.82031,-0.19531 1.6445,-0.34766 2.4688,-0.45312 0.82031,-0.10156 1.6484,-0.15625 2.4844,-0.15625 2.1562,0 3.7109,0.42969 4.6719,1.2812 0.95703,0.84375 1.4375,2.2266 1.4375,4.1406 z"
         id="path11" />
    </symbol>
    <symbol
       id="c"
       overflow="visible">
      <path
         d="m 6.0156,-15.359 v 3.3906 H 9.9531 V -9.234 H 6.0156 v 5.0781 c 0,0.55469 0.10938,0.92969 0.32812,1.125 0.21875,0.19922 0.65625,0.29688 1.3125,0.29688 h 1.9688 v 2.7344 h -3.2812 c -1.5117,0 -2.5859,-0.3125 -3.2188,-0.9375 -0.625,-0.63281 -0.9375,-1.707 -0.9375,-3.2188 v -5.0781 h -1.9062 v -2.7344 h 1.9062 v -3.3906 z"
         id="path14" />
    </symbol>
    <symbol
       id="j"
       overflow="visible">
      <path
         d="m 9.9688,-10.219 v -6.4062 h 3.8594 V -2e-4 H 9.9688 V -1.7346 C 9.44536,-1.02366 8.8672,-0.5041 8.2344,-0.1721 7.59768,0.14821 6.8633,0.31228 6.0313,0.31228 c -1.4688,0 -2.6797,-0.58203 -3.625,-1.75 -0.94922,-1.1758 -1.4219,-2.6875 -1.4219,-4.5312 0,-1.8437 0.47266,-3.3477 1.4219,-4.5156 0.94531,-1.1758 2.1562,-1.7656 3.625,-1.7656 0.83203,0 1.5664,0.16797 2.2031,0.5 0.63281,0.32422 1.2109,0.83594 1.7344,1.5312 z m -2.5156,7.75 c 0.82031,0 1.4453,-0.29688 1.875,-0.89062 0.42578,-0.60156 0.64062,-1.4727 0.64062,-2.6094 0,-1.1445 -0.21484,-2.0156 -0.64062,-2.6094 -0.42969,-0.59375 -1.0547,-0.89062 -1.875,-0.89062 -0.8125,0 -1.4336,0.29688 -1.8594,0.89062 -0.42969,0.59375 -0.64062,1.4648 -0.64062,2.6094 0,1.1367 0.21094,2.0078 0.64062,2.6094 0.42578,0.59375 1.0469,0.89062 1.8594,0.89062 z"
         id="path17" />
    </symbol>
    <symbol
       id="i"
       overflow="visible">
      <path
         d="m 8.2031,-2.4688 c 0.82031,0 1.4453,-0.29688 1.875,-0.89062 0.42578,-0.60156 0.64062,-1.4727 0.64062,-2.6094 0,-1.1445 -0.21484,-2.0156 -0.64062,-2.6094 -0.42969,-0.59375 -1.0547,-0.89062 -1.875,-0.89062 -0.82422,0 -1.4531,0.30469 -1.8906,0.90625 -0.4375,0.59375 -0.65625,1.4609 -0.65625,2.5938 0,1.1367 0.21875,2.0078 0.65625,2.6094 0.4375,0.59375 1.0664,0.89062 1.8906,0.89062 z m -2.5469,-7.75 c 0.53125,-0.69531 1.1133,-1.207 1.75,-1.5312 0.64453,-0.33203 1.3828,-0.5 2.2188,-0.5 1.4688,0 2.6758,0.58984 3.625,1.7656 0.94531,1.168 1.4219,2.6719 1.4219,4.5156 0,1.8437 -0.47656,3.3555 -1.4219,4.5312 -0.94922,1.168 -2.1562,1.75 -3.625,1.75 -0.83594,0 -1.5742,-0.16797 -2.2188,-0.5 -0.63672,-0.33203 -1.2188,-0.84766 -1.75,-1.5469 V -1e-4 H 1.8437 v -16.625 h 3.8125 z"
         id="path20" />
    </symbol>
    <symbol
       id="h"
       overflow="visible">
      <path
         d="m 0.26562,-11.969 h 3.8281 l 3.2188,8.125 2.7344,-8.125 h 3.8125 L 8.82822,1.125 c -0.5,1.332 -1.0898,2.2656 -1.7656,2.7969 -0.66797,0.53125 -1.5547,0.79688 -2.6562,0.79688 h -2.2188 v -2.5 h 1.2031 c 0.64453,0 1.1133,-0.10547 1.4062,-0.3125 C 5.0977,1.69534 5.32817,1.32816 5.48442,0.79688 L 5.5938,0.45313 Z"
         id="path23" />
    </symbol>
    <symbol
       id="g"
       overflow="visible">
      <path
         d="m 2.0156,-15.953 h 11.094 v 3.1094 H 6.1252 v 2.9688 h 6.5625 v 3.1094 H 6.1252 V 2e-4 H 2.0158 Z"
         id="path26" />
    </symbol>
    <symbol
       id="u"
       overflow="visible">
      <path
         d="M 1.8438,-16.625 H 5.6563 V 0 H 1.8438 Z"
         id="path29" />
    </symbol>
    <symbol
       id="a"
       overflow="visible">
      <path
         d="m 7.5312,-9.5156 c -0.84375,0 -1.4922,0.30859 -1.9375,0.92188 -0.44922,0.60547 -0.67188,1.4805 -0.67188,2.625 0,1.1484 0.22266,2.0273 0.67188,2.6406 0.44531,0.60547 1.0938,0.90625 1.9375,0.90625 0.83203,0 1.4688,-0.30078 1.9062,-0.90625 0.44531,-0.61328 0.67188,-1.4922 0.67188,-2.6406 0,-1.1445 -0.22656,-2.0195 -0.67188,-2.625 C 8.9999,-9.207 8.3632,-9.5156 7.5312,-9.5156 Z m 0,-2.7344 c 2.0508,0 3.6562,0.55859 4.8125,1.6719 1.1641,1.1055 1.75,2.6406 1.75,4.6094 0,1.9688 -0.58594,3.5117 -1.75,4.625 -1.1562,1.1055 -2.7617,1.6562 -4.8125,1.6562 -2.0625,0 -3.6797,-0.55078 -4.8438,-1.6562 -1.168,-1.1133 -1.75,-2.6562 -1.75,-4.625 0,-1.9688 0.58203,-3.5039 1.75,-4.6094 1.1641,-1.1133 2.7812,-1.6719 4.8438,-1.6719 z"
         id="path32" />
    </symbol>
    <symbol
       id="t"
       overflow="visible">
      <path
         d="m 0.76562,-11.969 h 3.7188 l 2.0156,8.25 2.0156,-8.25 h 3.1875 l 2.0156,8.1719 2.0156,-8.1719 h 3.7188 L 16.29692,0 h -4.1719 L 10.10942,-8.2188 8.09382,0 h -4.1719 z"
         id="path35" />
    </symbol>
    <symbol
       id="s"
       overflow="visible">
      <path
         d="M 1.8438,-11.969 H 5.6563 V 0 H 1.8438 Z m 0,-4.6562 h 3.8125 v 3.125 H 1.8438 Z"
         id="path38" />
    </symbol>
    <symbol
       id="f"
       overflow="visible">
      <path
         d="m 11.5,-11.594 v 3.125 C 10.97656,-8.82056 10.457,-9.08228 9.9375,-9.25025 9.41406,-9.42603 8.875,-9.51587 8.3125,-9.51587 c -1.0742,0 -1.9062,0.3125 -2.5,0.9375 -0.5938,0.625 -0.89062,1.4961 -0.89062,2.6094 0,1.1172 0.29688,1.9844 0.89062,2.6094 0.59374,0.625 1.4258,0.9375 2.5,0.9375 0.59375,0 1.1562,-0.085937 1.6875,-0.26562 0.53906,-0.17578 1.0391,-0.44141 1.5,-0.79688 v 3.125 c -0.59375,0.23047 -1.1992,0.39453 -1.8125,0.5 -0.61719,0.11328 -1.2344,0.17188 -1.8594,0.17188 -2.1562,0 -3.8438,-0.55078 -5.0625,-1.6562 -1.2188,-1.1133 -1.8281,-2.6562 -1.8281,-4.625 0,-1.9688 0.60938,-3.5039 1.8281,-4.6094 1.2188,-1.1133 2.9062,-1.6719 5.0625,-1.6719 0.625,0 1.2383,0.05859 1.8438,0.17188 0.61328,0.10547 1.2227,0.26562 1.8281,0.48438 z"
         id="path41" />
    </symbol>
    <symbol
       id="e"
       overflow="visible">
      <path
         d="M 13.859,-7.2812 V 0 h -3.8438 v -5.5781 c 0,-1.0312 -0.027344,-1.7383 -0.078125,-2.125 -0.042969,-0.39453 -0.12109,-0.6875 -0.23438,-0.875 -0.14844,-0.25 -0.35156,-0.44141 -0.60938,-0.57812 -0.25,-0.14453 -0.54297,-0.21875 -0.875,-0.21875 -0.79297,0 -1.418,0.3125 -1.875,0.9375 -0.46094,0.61719 -0.6875,1.4648 -0.6875,2.5469 V 3e-5 h -3.8125 v -11.969 h 3.8125 v 1.75 c 0.58203,-0.69531 1.1953,-1.207 1.8438,-1.5312 0.64453,-0.33203 1.3594,-0.5 2.1406,-0.5 1.3828,0 2.4297,0.42969 3.1406,1.2812 0.71875,0.84375 1.0781,2.0742 1.0781,3.6875 z"
         id="path44" />
    </symbol>
    <symbol
       id="r"
       overflow="visible">
      <path
         d="m 9.7031,-16.625 v 2.5156 H 7.5937 c -0.54297,0 -0.92188,0.10156 -1.1406,0.29688 -0.21094,0.19922 -0.3125,0.53906 -0.3125,1.0156 v 0.82812 h 3.2656 v 2.7344 H 6.1406 V 0 H 2.3125 V -9.2344 H 0.4219 v -2.7344 h 1.8906 v -0.82812 c 0,-1.3008 0.36328,-2.2656 1.0938,-2.8906 0.72656,-0.625 1.8516,-0.9375 3.375,-0.9375 z"
         id="path47" />
    </symbol>
    <symbol
       id="q"
       overflow="visible">
      <path
         d="m 12.922,-9.9688 c 0.48828,-0.75 1.0625,-1.3164 1.7188,-1.7031 0.66406,-0.38281 1.3984,-0.57812 2.2031,-0.57812 1.375,0 2.4219,0.42969 3.1406,1.2812 0.71875,0.84375 1.0781,2.0742 1.0781,3.6875 v 7.2812 h -3.8438 v -6.2344 c 0.0078,-0.09375 0.01563,-0.1875 0.01563,-0.28125 v -0.4375 c 0,-0.84375 -0.125,-1.457 -0.375,-1.8438 -0.25,-0.38281 -0.65234,-0.57812 -1.2031,-0.57812 -0.73047,0 -1.293,0.30469 -1.6875,0.90625 -0.38672,0.59375 -0.58984,1.4609 -0.60938,2.5938 v 5.875 h -3.8438 v -6.2344 c 0,-1.3203 -0.11719,-2.1758 -0.34375,-2.5625 -0.23047,-0.38281 -0.63672,-0.57812 -1.2188,-0.57812 -0.73047,0 -1.2969,0.30469 -1.7031,0.90625 -0.39844,0.60547 -0.59375,1.4648 -0.59375,2.5781 v 5.8906 h -3.8438 v -11.969 h 3.8438 v 1.75 c 0.46875,-0.66406 1.0039,-1.1719 1.6094,-1.5156 0.61328,-0.34375 1.2891,-0.51562 2.0312,-0.51562 0.82031,0 1.5508,0.19922 2.1875,0.59375 0.63281,0.39844 1.1133,0.96094 1.4375,1.6875 z"
         id="path50" />
    </symbol>
    <symbol
       id="p"
       overflow="visible">
      <path
         d="M 13.859,-7.2812 V 0 h -3.8438 v -5.5469 c 0,-1.0508 -0.027344,-1.7695 -0.078125,-2.1562 -0.042969,-0.39453 -0.12109,-0.6875 -0.23438,-0.875 -0.14844,-0.25 -0.35156,-0.44141 -0.60938,-0.57812 -0.25,-0.14453 -0.54297,-0.21875 -0.875,-0.21875 -0.79297,0 -1.418,0.3125 -1.875,0.9375 -0.46094,0.61719 -0.6875,1.4648 -0.6875,2.5469 V 3e-5 h -3.8125 v -16.625 h 3.8125 v 6.4062 c 0.58203,-0.69531 1.1953,-1.207 1.8438,-1.5312 0.64453,-0.33203 1.3594,-0.5 2.1406,-0.5 1.3828,0 2.4297,0.42969 3.1406,1.2812 0.71875,0.84375 1.0781,2.0742 1.0781,3.6875 z"
         id="path53" />
    </symbol>
    <symbol
       id="o"
       overflow="visible">
      <path
         d="m 2.0156,-15.953 h 4.5781 l 5.8125,10.938 v -10.938 h 3.8906 V 0 H 11.703 L 5.9061,-10.938 V 0 H 2.0155 Z"
         id="path56" />
    </symbol>
    <symbol
       id="n"
       overflow="visible">
      <path
         d="m 1.7031,-4.6562 v -7.3125 h 3.8438 v 1.2031 c 0,0.64844 -0.00781,1.4609 -0.015625,2.4375 v 1.9688 c 0,0.96094 0.023438,1.6523 0.078125,2.0781 0.050781,0.41797 0.13281,0.72656 0.25,0.92188 0.15625,0.25 0.35938,0.44531 0.60938,0.57812 0.25781,0.13672 0.55078,0.20312 0.875,0.20312 0.80078,0 1.4258,-0.30469 1.875,-0.92188 0.45703,-0.61328 0.6875,-1.4688 0.6875,-2.5625 v -5.9062 h 3.8281 v 11.969 h -3.8281 v -1.7344 c -0.57422,0.69922 -1.1836,1.2148 -1.8281,1.5469 -0.64844,0.33203 -1.3555,0.5 -2.125,0.5 -1.3867,0 -2.4453,-0.42188 -3.1719,-1.2656 -0.71875,-0.85156 -1.0781,-2.0859 -1.0781,-3.7031 z"
         id="path59" />
    </symbol>
    <symbol
       id="m"
       overflow="visible">
      <path
         d="m 2.0156,-15.953 h 6.8125 c 2.0312,0 3.5859,0.45312 4.6719,1.3594 1.0938,0.89844 1.6406,2.1797 1.6406,3.8438 0,1.6797 -0.54688,2.9688 -1.6406,3.875 -1.0859,0.89844 -2.6406,1.3438 -4.6719,1.3438 H 6.125 V 2e-4 H 2.0156 Z m 4.1094,2.9844 v 4.4531 h 2.2656 c 0.80078,0 1.4141,-0.19141 1.8438,-0.57812 0.4375,-0.38281 0.65625,-0.9375 0.65625,-1.6562 0,-0.70703 -0.21875,-1.2539 -0.65625,-1.6406 -0.42969,-0.38281 -1.043,-0.57812 -1.8438,-0.57812 z"
         id="path62" />
    </symbol>
    <symbol
       id="l"
       overflow="visible">
      <path
         d="m 1.8438,-11.969 h 3.8125 v 11.75 c 0,1.6016 -0.38672,2.8281 -1.1562,3.6719 C 3.73838,4.29665 2.629,4.7185 1.172,4.7185 h -1.8906 v -2.5 h 0.65625 c 0.72656,0 1.2266,-0.16797 1.5,-0.5 C 1.70718,1.39428 1.8439,0.74975 1.8439,-0.219 Z m 0,-4.6562 h 3.8125 v 3.125 H 1.8438 Z"
         id="path65" />
    </symbol>
  </defs>
  <g
     id="g160">
    <g
       id="g329"
       transform="matrix(0.06786335,0,0,0.08273252,0.09164851,-4.0446401)">
      <path
         d="m 176.31,538.12 c 34.895,0.73438 75.77,-17.691 85.641,-43.312 11.914,-29.75 -6.4844,-52.691 0.4375,-84.57 7.0391,-38.227 47.359,-62.781 70.762,-74.016 45.785,-21.98 84.836,-14.512 122.61,-7.2891 36.992,7.0703 71.941,13.754 105.9,-10.812 26.66,-19.281 52.547,-59.578 46.375,-102.61 -13.477,-73.102 -76.938,-83.902 -156.34,-71.047 -103.42,17.852 -114.59,16.215 -201.53,3.4609 -51.719,-9.5117 -107.39,-11.18 -132.19,16.523 -41.457,43 -10.328,125.93 -4.2305,179.28 0.62109,13.934 -2.9102,25.754 -7,39.445 -5.5195,16.75 -9.0469,34.09 -10.5,51.664 -5.1914,68.348 23.516,102.37 80.062,103.29 z M 109.372,435.78 c 1.9688,-38.012 18.039,-57.23 17.5,-92.641 -4.375,-48.75 -36.203,-129.15 0.48828,-169.5 24.879,-27.125 83.645,-19.004 120.91,-12.723 86.84,12.734 100.19,14.695 205.66,-3.5 71.836,-11.375 129.24,-4.5977 141.14,60.09 5.3711,37.523 -17.539,72.957 -41.125,90.004 -29.371,21.234 -60.129,15.355 -95.746,8.5469 -37.996,-7.2617 -81.07,-15.496 -130.75,8.3477 -48.344,23.188 -92.246,62.824 -76.723,130.11 2.2344,13.414 4.0078,24.012 -0.82812,35.059 -7.5586,17.297 -30.93,30.855 -59.535,34.535 -57.887,5.9922 -86.031,-22.395 -80.992,-88.324 z"
         id="path80" />
      <path
         d="m 142,339.17 c 0.23047,32.438 0.49609,69.203 46.074,75.656 10.453,1.0664 20.973,-1.2656 30,-6.6445 9.0273,-5.3828 16.078,-13.527 20.113,-23.23 32.25,-75.125 143.02,-105.79 222.25,-86.34 v -0.004 c 26.934,7.2773 55.684,2.8594 79.188,-12.168 39.59,-25.516 56.387,-76.031 9.4219,-108.71 -37.816,-25.727 -99.242,-9.5391 -153.44,4.7422 -45.172,11.633 -71.465,20.75 -110.77,9.1484 -31.863,-7.2188 -68.578,-16.188 -98.074,-16.25 -71.379,2.1602 -76.352,50.238 -50.055,120.28 5.0625,11.816 5.1758,27.938 5.2891,43.52 z m -0.1875,-133.28 c 23.859,-31.355 86.355,-12.496 124.62,-5.0273 17.457,3.5586 34.465,9.2461 51.891,9.4883 61.652,0.22266 171.4,-56.793 223.36,-21.766 36.668,23.281 24.449,65.879 -8.9297,86.684 h 0.004 c -20.543,13.117 -45.66,16.961 -69.184,10.598 -84.328,-20.715 -202.61,12.762 -237.49,94.023 -2.8984,7.0664 -7.9922,13.016 -14.531,16.961 -6.5391,3.9492 -14.176,5.6875 -21.781,4.9609 -52.715,-4.7109 -24.68,-75.438 -40.887,-111.09 -15.406,-40.52 -17.781,-69.059 -7.0664,-84.832 z"
         id="path82" />
      <path
         d="m 177.12,339.94 c -1.4727,19.785 23.438,31.184 35.656,14.34 50.133,-67.414 145.74,-108.4 234.04,-94.125 34.223,4.1406 69.602,8.4102 86.73,-8.0078 13.125,-11.375 12.617,-40.938 -2.7969,-51.078 -21.223,-15.465 -66.324,-4.7344 -118.56,7.6953 -52.5,12.484 -111.98,26.641 -149.84,13.648 -60.18,-20.645 -83.016,-24.125 -93.961,-14.27 -9.7969,8.8164 -6.2695,24.203 -0.9375,47.496 4.875,21.234 11.535,50.312 9.668,84.301 z m 0.0586,-122.06 c 2.3906,-1.5469 5.2422,-2.2344 8.0742,-1.9414 17.844,0 56.52,13.273 72.844,18.875 69.891,27.5 223.64,-47.395 264.93,-23.156 8.8555,5.6523 8.6719,25.012 1.4453,30.996 -12.648,12.113 -47.82,7.875 -76.082,4.4531 -92.703,-14.895 -193.42,28.332 -246.18,99.398 -5.0977,6.5312 -12.367,0.98828 -11.988,-5.8359 1.9688,-35.836 -4.9297,-65.953 -9.9648,-87.938 -3.668,-16.039 -7.1406,-31.176 -3.0703,-34.828 z"
         id="path84" />
      <path
         d="m 541.33,354.45 c -35.035,-5.4961 -80.527,25.66 -59.004,57.355 7.0352,11.305 4.5273,17.328 -8.0273,23.418 -22.559,9.625 -42.875,42.805 -31.805,68.484 25.438,44.727 128.15,23.949 151.49,-16.766 26.676,-39.16 -2.5195,-124.99 -52.652,-132.49 z m 41.562,125.48 c -15.859,25.055 -57.363,36.98 -88.527,35.461 -20.32,-0.98828 -34.898,-7.2969 -40.02,-17.316 -4.8125,-10.426 0.58984,-26.812 8.1172,-36.977 10.832,-15.855 30.008,-13.602 36.059,-32.812 2.625,-9.707 -1.4531,-17.016 -4.7383,-22.883 -2.875,-5.1367 -4.5977,-8.5 -3.8711,-12.73 2.3008,-13.449 27.625,-28.68 49.387,-25.25 40.719,6.3242 65.41,81.199 43.59,112.52 z"
         id="path86" />
      <path
         d="m 533.08,384.46 c -6.1836,0.16797 -11.918,3.2461 -15.473,8.3047 -3.5547,5.0547 -4.5078,11.496 -2.5703,17.367 10.656,31.281 -14.359,46.609 -25.605,51.75 l -0.004,0.004 c -4.9883,2.1523 -9.4023,5.4492 -12.879,9.625 -3.2852,4.6055 -3.9531,10.586 -1.7734,15.805 2.1836,5.2227 6.9102,8.9453 12.496,9.8438 4.1055,0.51562 8.2383,0.80859 12.379,0.875 27.414,0.61328 58.652,-11.77 68.461,-27.445 8.0273,-12.688 7.0859,-36.312 -2.2539,-56.141 -9.2969,-19.758 -20.328,-29.844 -32.777,-29.988 z m 23.938,79.094 c -6.6328,10.5 -31.75,21.77 -57.105,21.34 l -0.004,0.004 c -3.5664,-0.0625 -7.1289,-0.30469 -10.672,-0.73047 -1.1172,-0.19141 -2.0547,-0.95312 -2.4727,-2.0039 -0.41797,-0.92578 -0.30469,-2.0039 0.29688,-2.8203 2.2344,-2.4453 4.9805,-4.3633 8.043,-5.6211 23.219,-10.695 43.848,-34.09 32.418,-67.629 v 0.004 c -0.69141,-1.8555 -0.47266,-3.9297 0.58594,-5.5977 1.0625,-1.6719 2.8438,-2.75 4.8164,-2.9141 6.8047,0.0781 14.281,8.0469 21.051,22.434 8.1719,17.352 7.9609,35.762 3.0391,43.539 z"
         id="path88" />
    </g>
  </g>
</svg>
